<?xml version="1.0" standalone="no"?>
<!DOCTYPE svg PUBLIC "-//W3C//DTD SVG 20010904//EN"
 "http://www.w3.org/TR/2001/REC-SVG-20010904/DTD/svg10.dtd">
<svg version="1.0" xmlns="http://www.w3.org/2000/svg"
 width="2951.000000pt" height="2835.000000pt" viewBox="0 0 2951.000000 2835.000000"
 preserveAspectRatio="xMidYMid meet">

<g transform="translate(0.000000,2835.000000) scale(0.100000,-0.100000)"
fill="#0d2f35" stroke="none">
<path d="M14597 28333 c-31 -8 -14 -27 53 -60 161 -81 470 -122 1075 -143 478
-17 681 -35 722 -65 17 -13 17 -14 -5 -38 -20 -21 -21 -25 -7 -31 28 -10 262
-7 292 5 27 10 28 11 8 26 -113 87 -535 168 -1080 208 -291 21 -460 40 -570
64 -145 32 -423 51 -488 34z"/>
<path d="M12580 28160 c-1281 -35 -1391 -41 -1520 -80 -77 -23 -215 -99 -274
-151 -23 -20 -59 -42 -81 -48 -22 -7 -123 -16 -225 -21 -604 -31 -684 -54
-1645 -480 -329 -145 -523 -221 -827 -321 -147 -48 -306 -106 -355 -129 -155
-73 -423 -266 -423 -306 0 -29 73 2 225 96 86 53 338 176 461 223 50 20 128
45 173 57 115 29 173 52 356 138 178 83 427 170 582 201 114 24 230 27 256 8
16 -11 15 -15 -14 -55 -17 -23 -27 -42 -22 -42 5 0 47 13 94 28 140 48 187 51
141 9 -29 -27 -260 -133 -371 -171 -194 -67 -290 -133 -351 -239 -39 -68 -40
-97 -2 -97 32 0 82 28 172 94 113 84 392 203 597 255 177 45 263 13 157 -60
-104 -72 -337 -165 -625 -249 -509 -150 -1326 -488 -1539 -636 -83 -57 -296
-166 -380 -193 -81 -27 -115 -45 -265 -141 -145 -94 -286 -170 -378 -204 -81
-30 -182 -94 -257 -163 -84 -76 -136 -111 -195 -128 -39 -11 -61 -25 -82 -51
-64 -81 -101 -114 -127 -114 -29 0 -66 -31 -66 -55 0 -41 -79 -144 -131 -171
-42 -21 -73 -17 -136 16 -31 17 -64 30 -74 30 -33 0 -21 -29 20 -50 47 -23 54
-33 46 -60 -13 -42 -106 -79 -277 -109 -193 -35 -256 -77 -323 -217 -58 -121
-122 -194 -337 -387 -211 -188 -349 -331 -423 -437 -74 -105 -205 -247 -366
-397 -141 -132 -301 -272 -362 -317 l-37 -29 2 24 c2 18 -2 25 -21 27 -13 2
-27 0 -32 -5 -4 -4 -15 -52 -23 -105 -9 -54 -27 -128 -41 -165 -106 -281 -471
-764 -645 -853 -49 -25 -62 -25 -85 0 -28 31 -50 24 -115 -35 -33 -30 -68 -55
-77 -55 -10 0 -31 9 -48 20 -39 26 -55 25 -55 -2 0 -31 -86 -205 -207 -423
-197 -353 -277 -525 -294 -637 -12 -79 -46 -185 -103 -318 -47 -111 -46 -131
5 -188 23 -26 48 -62 57 -79 9 -18 21 -33 27 -33 16 0 63 52 128 141 83 114
162 204 373 420 209 215 330 359 394 469 51 88 104 142 150 155 26 7 43 23 65
57 71 112 155 70 155 -77 0 -63 8 -67 56 -30 59 45 93 106 109 196 29 167 109
282 404 576 115 114 221 228 236 252 17 28 32 73 41 123 7 43 18 87 24 98 6
10 38 33 73 49 42 20 100 64 176 133 155 142 185 164 189 143 6 -26 -92 -163
-244 -340 -650 -759 -1194 -1555 -1686 -2465 -328 -606 -574 -1157 -813 -1815
-115 -319 -144 -365 -227 -365 -96 0 -162 57 -201 172 -18 55 -21 86 -20 243
0 213 18 341 57 408 47 80 27 220 -38 262 -88 58 -394 21 -499 -59 -70 -54
-96 -137 -97 -306 0 -141 -34 -244 -178 -540 -183 -377 -197 -478 -189 -1361
5 -631 7 -653 72 -719 21 -21 52 -44 69 -50 114 -42 322 -174 379 -240 41 -49
53 -86 67 -215 15 -136 30 -156 124 -170 91 -13 112 -31 96 -85 -19 -68 -40
-510 -61 -1298 l-13 -464 -30 5 c-17 3 -63 11 -102 18 -88 16 -104 10 -104
-34 0 -53 -25 -113 -75 -179 -38 -51 -45 -67 -45 -107 0 -66 33 -109 140 -181
50 -33 90 -64 90 -69 0 -5 -26 -17 -57 -27 -46 -15 -61 -26 -78 -54 -30 -53
-25 -159 14 -280 44 -137 62 -260 67 -465 6 -204 2 -223 -43 -187 -34 27 -98
59 -135 67 -36 7 -44 40 -58 235 -6 85 -27 272 -45 415 -19 143 -39 307 -45
365 -15 146 -24 616 -13 665 l9 40 17 -56 c28 -95 98 -172 141 -156 44 17 -14
293 -137 652 l-72 210 0 175 c0 96 4 236 9 311 10 161 5 179 -52 179 -54 0
-139 -54 -178 -111 -53 -79 -66 -186 -85 -699 -17 -443 -3 -746 77 -1765 60
-766 150 -1372 285 -1909 53 -211 87 -315 174 -536 67 -170 129 -354 280 -835
80 -254 138 -410 207 -560 62 -134 101 -229 164 -400 48 -131 130 -323 244
-570 51 -110 110 -243 131 -295 35 -88 41 -96 73 -105 58 -17 68 -34 77 -136
10 -111 35 -191 100 -320 102 -204 277 -438 525 -702 403 -428 465 -510 555
-724 91 -218 157 -297 280 -333 76 -23 99 -49 99 -112 0 -51 24 -133 50 -171
36 -52 80 -77 155 -88 74 -10 153 -44 211 -90 48 -38 89 -60 98 -52 3 4 6 20
6 38 0 17 6 40 14 50 14 19 15 19 36 0 36 -33 67 -106 100 -234 35 -142 68
-233 103 -287 30 -48 44 -60 79 -69 23 -6 29 -2 42 23 9 17 25 33 36 37 54 17
167 -35 369 -169 177 -119 332 -201 506 -269 133 -52 249 -114 340 -182 154
-116 427 -386 490 -485 40 -63 197 -201 381 -335 99 -71 225 -166 280 -211 80
-64 118 -86 180 -108 44 -16 162 -65 264 -111 234 -105 364 -153 458 -171 80
-15 126 -38 182 -90 75 -69 237 -156 455 -244 143 -57 270 -118 316 -151 16
-11 38 -38 49 -58 54 -107 211 -181 431 -206 149 -16 199 -28 419 -100 206
-67 391 -116 585 -154 143 -29 219 -39 455 -60 124 -12 179 -29 228 -72 70
-62 104 -70 331 -80 445 -20 608 -30 759 -49 86 -11 299 -35 472 -55 388 -44
603 -76 819 -120 228 -48 429 -59 921 -51 896 15 1783 47 2230 82 245 19 365
36 460 68 108 35 249 48 467 44 160 -2 193 -6 216 -21 35 -23 36 -61 2 -83
-17 -11 -63 -18 -152 -24 -246 -17 -664 -78 -1193 -175 -339 -62 -368 -63
-1440 -69 -1178 -6 -1410 -16 -1557 -67 -31 -10 -64 -19 -74 -19 -9 0 -40 20
-69 44 -92 78 -240 102 -900 146 -457 30 -641 52 -742 89 -81 30 -196 57 -388
90 -197 34 -484 105 -730 180 -91 28 -237 73 -325 100 -282 87 -481 122 -757
136 -160 9 -311 -1 -305 -18 6 -21 119 -75 347 -166 407 -162 732 -269 954
-316 71 -15 183 -43 250 -62 218 -63 260 -73 371 -83 61 -6 155 -15 210 -21
98 -9 193 -31 370 -83 188 -56 513 -113 1218 -216 152 -22 360 -47 460 -55
804 -65 2316 -24 2995 81 193 30 281 55 325 93 17 15 41 32 52 36 11 5 148 10
305 10 314 1 304 0 493 74 115 45 173 51 234 26 56 -24 137 -18 288 20 164 42
408 78 660 100 386 32 508 55 666 126 252 112 391 167 579 229 294 98 455 170
815 365 175 95 316 154 391 164 78 12 145 42 179 83 31 37 31 49 0 76 -30 27
-32 45 -4 73 41 41 129 70 288 94 58 8 123 24 146 35 25 12 84 65 148 134 98
104 115 118 199 159 55 27 126 73 173 113 254 211 1024 751 1254 878 127 70
197 124 349 269 177 168 228 205 563 407 120 73 247 168 366 277 167 152 218
180 352 193 73 8 101 17 186 59 55 27 109 52 120 56 11 4 130 11 265 15 208 6
255 11 311 29 118 37 187 107 228 228 30 89 41 177 51 398 5 110 14 218 21
240 28 98 93 196 213 325 216 231 336 489 490 1051 75 273 116 373 199 483 44
58 77 143 77 199 0 40 -18 79 -51 110 -22 20 -29 34 -27 54 2 22 12 30 52 45
89 31 218 181 252 292 10 34 18 122 24 261 12 285 28 348 211 836 255 683 436
1249 454 1424 8 72 20 109 52 152 33 45 47 89 88 271 69 314 206 1079 264
1480 58 395 60 584 15 1112 -34 396 -71 583 -143 720 -16 30 -34 82 -41 115
-15 80 -29 580 -30 1055 0 401 -11 616 -35 710 -7 30 -30 102 -50 160 -60 174
-183 643 -236 899 -10 51 -19 120 -19 153 0 54 4 67 39 120 81 120 65 238 -64
498 -92 186 -117 283 -145 576 -30 322 -81 585 -175 914 -183 638 -413 1100
-562 1123 -82 13 -118 92 -135 297 -13 164 -33 258 -63 303 -14 20 -81 150
-150 289 -80 164 -145 280 -182 330 -66 89 -149 240 -262 478 -102 215 -160
317 -254 450 -161 227 -307 494 -327 598 -5 29 -16 65 -24 80 -16 30 -100 112
-115 112 -29 0 -78 -88 -87 -155 -5 -34 0 -64 22 -130 33 -99 28 -113 -32 -92
-21 8 -56 17 -77 21 -47 9 -54 25 -66 151 -11 129 -46 199 -144 291 -40 38
-93 82 -117 99 -228 151 -516 413 -955 871 -355 370 -520 523 -775 719 -171
131 -318 265 -480 435 -161 170 -249 238 -348 271 -89 29 -192 80 -274 137
-86 60 -264 220 -330 296 -62 71 -190 181 -239 207 -20 10 -64 23 -97 28 -73
12 -123 36 -191 94 -89 76 -301 183 -433 218 -52 14 -68 8 -47 -17 22 -26 169
-122 403 -263 250 -150 396 -250 540 -370 158 -132 321 -260 441 -346 149
-106 256 -196 278 -234 17 -30 17 -31 1 -38 -72 -27 -639 205 -1213 498 -483
246 -615 298 -931 364 -365 77 -546 132 -650 200 -236 155 -683 315 -1504 541
-339 93 -452 132 -499 173 -43 38 -57 40 -247 51 -188 11 -255 27 -319 76 -58
44 -87 44 -187 -5 -126 -60 -126 -60 -246 3 -123 64 -159 73 -210 51 -47 -19
-76 -15 -273 35 -194 50 -331 69 -595 80 -118 5 -244 12 -280 15 -199 18 -286
64 -278 147 4 42 39 60 118 61 78 0 119 -18 127 -55 8 -41 47 -68 97 -68 62 0
72 10 58 58 -17 56 -64 116 -106 136 -94 45 -243 43 -367 -3 -104 -40 -128
-62 -143 -133 -10 -46 -56 -63 -166 -62 -124 1 -232 29 -430 109 -228 93 -329
115 -610 135 -225 15 -282 22 -273 31 5 5 136 31 293 59 734 131 854 155 845
170 -8 12 -90 28 -245 46 -203 23 -614 25 -1350 4z m9460 -9280 l0 -810 -97 0
c-54 0 -483 -7 -953 -16 -1016 -17 -3716 -28 -4220 -17 l-355 8 -6 380 c-4
209 -9 579 -12 823 l-6 442 2825 0 2824 0 0 -810z m-12640 790 c797 -19 989
-42 1374 -167 388 -126 711 -282 942 -454 180 -135 459 -415 603 -607 202
-267 335 -595 393 -966 19 -123 22 -181 22 -456 0 -275 -3 -333 -22 -455 -79
-507 -349 -1011 -745 -1391 -134 -129 -221 -195 -392 -299 -190 -116 -277
-188 -261 -214 3 -5 22 -11 43 -13 21 -3 76 -21 123 -39 108 -42 647 -311 760
-379 254 -152 549 -436 717 -690 161 -242 273 -511 310 -741 26 -167 26 -1022
0 -1209 -43 -305 -120 -520 -277 -771 -414 -662 -1074 -1111 -1965 -1337 -541
-138 -1037 -182 -2045 -182 -632 0 -1408 24 -1497 47 -14 3 -23 13 -23 24 0
14 -9 21 -30 26 -16 3 -30 8 -30 11 0 3 18 20 40 39 52 45 52 68 -2 114 l-42
36 30 14 c23 11 30 21 32 52 4 43 -11 67 -39 67 -29 0 -23 13 21 49 27 21 40
40 40 56 0 16 -13 35 -40 56 -44 36 -50 49 -21 49 28 0 43 24 39 67 -2 31 -9
41 -32 52 l-30 14 42 36 c60 51 57 74 -18 134 l-22 19 31 19 c25 15 31 25 31
52 0 33 -19 59 -49 69 -10 3 -1 16 27 43 23 21 42 47 42 58 0 11 -19 36 -41
57 l-41 38 28 13 c50 24 44 119 -7 119 -27 0 -24 9 16 46 19 17 35 41 35 52 0
16 9 21 53 26 174 20 682 39 1537 56 1145 23 1327 48 1686 230 150 76 257 154
379 275 274 272 368 509 368 925 0 401 -101 660 -357 916 -154 153 -338 265
-590 358 -286 106 -475 125 -1466 146 -905 19 -1448 39 -1565 59 -31 5 -41 11
-43 29 -2 12 -19 34 -38 48 -38 30 -43 44 -14 44 44 0 54 95 12 116 -35 17
-36 21 -9 54 48 56 49 182 2 200 -30 11 -25 29 15 52 17 10 33 24 36 33 11 27
-5 63 -36 81 -40 24 -44 41 -12 56 46 22 43 99 -5 116 l-28 9 43 38 c23 22 42
47 42 59 0 12 -17 36 -42 57 l-42 36 30 14 c23 11 30 21 32 52 4 43 -11 67
-39 67 -29 0 -23 13 21 49 27 21 40 40 40 56 0 16 -13 35 -40 56 -46 37 -50
49 -15 49 18 0 28 7 35 24 7 19 18 25 62 30 117 14 341 25 698 36 1338 38
1332 37 1603 116 566 165 897 424 1027 806 93 276 106 670 30 946 -25 88 -93
239 -139 305 -116 170 -275 299 -496 403 -361 170 -640 211 -1545 229 -933 18
-1290 39 -1290 73 0 4 16 22 35 41 19 18 35 42 35 53 0 11 -19 37 -41 58 l-41
38 28 13 c50 24 44 119 -7 119 -29 0 -23 13 21 49 27 21 40 40 40 56 0 16 -13
35 -40 56 -47 38 -49 45 -15 53 47 12 48 92 1 115 l-28 13 41 38 c24 22 41 47
41 59 0 20 -43 71 -60 71 -4 0 -10 7 -13 15 -4 9 4 19 21 27 45 22 43 102 -3
114 -34 8 -32 15 15 53 52 42 52 66 -2 112 l-42 36 30 14 c23 11 30 21 32 52
4 43 -11 67 -39 67 -29 0 -23 13 21 49 47 38 51 64 13 103 -30 32 -25 35 52
41 117 8 1515 6 1895 -3z m12640 -5125 l0 -815 -1990 0 -1990 0 0 -2230 0
-2230 -77 0 c-301 0 -1559 23 -1565 28 -7 8 -29 6042 -22 6054 3 4 1274 8
2825 8 l2819 0 0 -815z"/>
<path d="M17370 27801 c0 -13 55 -24 80 -16 11 4 18 11 15 16 -8 12 -95 12
-95 0z"/>
<path d="M17730 27754 c0 -23 82 -117 144 -166 44 -35 55 -40 91 -36 42 5 125
50 125 69 0 20 -297 149 -345 149 -8 0 -15 -7 -15 -16z"/>
<path d="M15634 27684 c-12 -3 -29 -13 -39 -23 -15 -17 -15 -22 -1 -54 15 -36
41 -57 71 -57 26 0 73 38 91 72 13 26 14 33 2 44 -14 15 -89 25 -124 18z"/>
<path d="M18291 27544 c19 -23 84 -54 114 -54 36 0 24 15 -35 45 -58 30 -100
34 -79 9z"/>
<path d="M18659 27373 c147 -135 184 -157 289 -174 52 -9 90 -9 143 -1 82 12
99 23 78 48 -34 42 -290 138 -449 168 -47 9 -96 19 -110 22 -19 4 -7 -11 49
-63z"/>
<path d="M8890 27206 c-23 -26 -22 -56 3 -56 23 0 67 40 67 61 0 28 -41 25
-70 -5z"/>
<path d="M19300 27145 c42 -32 263 -140 305 -149 l30 -6 -25 21 c-31 26 -274
146 -315 155 l-30 6 35 -27z"/>
<path d="M19945 26850 c-10 -16 5 -29 51 -45 44 -15 57 -4 28 25 -24 24 -70
35 -79 20z"/>
<path d="M7097 26542 c-20 -22 -22 -42 -4 -42 21 1 80 34 85 48 6 20 -62 15
-81 -6z"/>
<path d="M6419 26236 c-215 -130 -543 -369 -704 -515 -58 -53 -126 -104 -163
-122 -71 -36 -200 -143 -250 -208 -65 -86 -25 -100 135 -46 192 64 310 147
333 235 28 104 180 264 396 418 139 98 298 231 307 256 8 20 11 21 -54 -18z"/>
<path d="M4985 25089 c-49 -28 -137 -75 -195 -104 -155 -80 -272 -183 -329
-290 -24 -46 -28 -122 -7 -150 13 -18 15 -18 41 -1 94 62 615 556 615 584 0
23 -35 12 -125 -39z"/>
<path d="M4779 24689 c-72 -46 -219 -186 -281 -267 -68 -88 -27 -79 77 16 117
108 228 127 155 26 -28 -40 -29 -44 -11 -44 11 0 33 12 50 26 23 19 30 33 29
57 -1 41 19 79 81 154 28 34 51 64 51 67 0 3 -20 6 -43 6 -34 0 -58 -9 -108
-41z"/>
<path d="M4288 24398 c-29 -23 -87 -74 -129 -113 -93 -88 -204 -168 -267 -191
-94 -35 -161 -92 -273 -234 -110 -138 -291 -324 -406 -417 -114 -91 -137 -120
-169 -218 -22 -64 -36 -86 -83 -133 -44 -45 -74 -91 -139 -217 -79 -154 -106
-192 -295 -436 -175 -226 -258 -413 -217 -490 6 -10 19 -19 29 -19 57 0 270
320 325 485 23 71 97 164 196 246 222 185 810 763 1011 995 121 139 318 391
397 507 59 87 66 103 64 141 -1 32 5 54 23 80 14 20 25 41 25 46 0 22 -41 7
-92 -32z"/>
<path d="M2880 22544 c-95 -26 -122 -60 -86 -109 29 -40 92 -17 170 63 59 62
31 77 -84 46z"/>
<path d="M2387 20789 c-15 -12 -38 -42 -51 -68 -53 -104 -146 -348 -146 -382
0 -26 31 -25 57 4 49 52 186 297 219 390 25 70 -19 101 -79 56z"/>
<path d="M28873 14478 c-42 -47 -65 -116 -83 -248 -15 -107 -6 -199 23 -242
12 -17 27 -32 32 -32 15 -1 52 82 65 148 7 34 9 84 5 118 -6 50 -3 70 21 138
23 63 26 85 18 107 -13 37 -52 42 -81 11z"/>
<path d="M29196 14423 c-8 -8 -8 -57 0 -78 10 -24 24 1 24 42 0 31 -11 49 -24
36z"/>
<path d="M29046 14318 c-31 -50 -32 -214 -1 -188 25 21 46 94 43 150 -3 59
-19 74 -42 38z"/>
<path d="M29108 13893 c-9 -10 -41 -70 -72 -133 -31 -63 -71 -133 -89 -156
-76 -93 -112 -289 -102 -564 8 -209 4 -226 -65 -336 -58 -92 -81 -170 -90
-310 -10 -132 -23 -199 -51 -255 -34 -68 -62 -73 -113 -20 -45 47 -52 118 -33
376 17 246 11 345 -23 345 -15 0 -30 -62 -30 -124 0 -97 -25 -190 -81 -302
-47 -92 -53 -112 -57 -181 -4 -68 -1 -86 21 -138 14 -33 22 -63 18 -67 -3 -4
-24 -2 -45 4 -34 11 -40 10 -52 -7 -16 -22 -18 -104 -3 -158 6 -21 22 -46 39
-59 38 -27 38 -53 5 -174 -36 -133 -44 -183 -55 -340 -10 -152 -26 -264 -65
-452 -49 -241 -81 -345 -165 -532 -140 -312 -291 -795 -310 -990 -15 -146 -28
-181 -127 -346 -54 -89 -96 -204 -112 -306 -17 -104 -56 -213 -132 -364 -80
-159 -92 -209 -60 -238 28 -26 60 -15 123 40 56 50 141 108 185 125 37 15 166
49 170 45 2 -2 -1 -54 -7 -117 -13 -145 -13 -260 0 -293 7 -19 17 -26 37 -26
34 0 71 33 117 103 42 66 70 91 126 116 80 36 149 126 268 351 138 261 205
439 282 747 49 194 52 202 160 418 84 169 124 262 170 400 123 372 208 764
210 965 1 41 7 91 13 110 11 29 17 35 39 32 31 -3 65 35 98 113 47 108 78 305
48 305 -6 0 -36 -23 -66 -52 -52 -49 -55 -51 -68 -33 -17 23 -18 88 -3 118 7
12 29 41 50 63 71 78 94 152 139 444 38 243 65 379 96 484 52 171 72 432 39
495 -19 38 -92 101 -182 158 -40 26 -73 49 -73 53 0 3 13 16 30 28 59 44 61
149 5 284 -44 104 -56 150 -54 203 4 85 0 102 -30 134 -33 35 -51 39 -73 14z"/>
<path d="M3610 4440 c0 -21 214 -249 225 -238 16 16 -49 124 -114 189 -71 71
-111 89 -111 49z"/>
<path d="M4617 3803 c-27 -26 31 -103 77 -103 38 0 34 34 -8 76 -33 33 -55 42
-69 27z"/>
</g>
</svg>
